<svg width="3392" height="3377" viewBox="0 0 3392 3377" fill="none" xmlns="http://www.w3.org/2000/svg">
<g clip-path="url(#clip0_539_674)">
<path d="M2376.54 2450.7L2629.81 2896.45H624.281L877.55 2450.7L884.168 2439.05H870.771H694.048H689.514L687.271 2442.99L511.985 2751L331.442 2446.79L1627.07 201.38L2933.03 2446.81L2752.22 2751.46L2561.48 2442.75L2559.19 2439.05H2554.84H2383.32H2369.92L2376.54 2450.7ZM2383.32 2119.39H2397.03L2390.02 2107.61L1633.74 836.756L1627.04 825.497L1620.34 836.756L864.071 2107.61L857.059 2119.39H870.771H1070.88H1075.39L1077.64 2115.49L1627.05 1163.01L2078.74 1945.27H1722.76L1633.98 1772.77L1627.42 1760.02L1620.28 1772.46L1155.08 2583.31L1148.38 2594.98H1161.85H2074.05H2086.25L2081.13 2583.91L2016.15 2443.57L2014.06 2439.05H2009.08H1448.19L1631.56 2119.39H2383.32Z" fill="white" stroke="white" stroke-width="15.5933"/>
<path d="M1599.51 620.567L1600.32 620.227L1600.76 620.981L2140.6 1533.18L2382.93 1607.26L2383.3 1607.37L2383.5 1607.71L2870.71 2430.97L2891.63 2418.59L2402.16 1591.51L2401.87 1591.02L2402.14 1590.52L2402.42 1590L2158.69 1515.49L2158.32 1515.38L2158.12 1515.04L1621.68 608.6L1621.24 607.846L1621.92 607.301C1651.21 584.103 1661.93 547.409 1646.06 520.595C1628.37 490.712 1584.01 483.871 1546.78 505.902C1509.56 527.932 1494.2 570.115 1511.89 599.998C1527.76 626.812 1565.08 635.074 1599.51 620.567ZM2312.03 1681.41L2311.91 1681.54L2420.33 1715.29L2364.61 1623.64L2364.52 1623.61L2156.48 1560.01L2209.84 1650.17L2310.51 1680.95L2312.03 1681.41ZM2388.34 1810.35L2388.22 1810.48L2496.64 1844.23L2440.92 1752.58L2440.82 1752.55L2232.79 1688.95L2286.14 1779.11L2386.81 1809.88L2388.34 1810.35ZM2453.74 1920.87L2453.63 1921L2562.04 1954.75L2506.32 1863.1L2506.23 1863.07L2298.19 1799.47L2351.55 1889.63L2452.21 1920.4L2453.74 1920.87ZM2540.95 2068.23L2540.83 2068.35L2649.25 2102.1L2593.53 2010.45L2593.43 2010.43L2488.18 1978.24L2385.4 1946.82L2438.76 2036.98L2539.42 2067.76L2540.95 2068.23ZM1589.36 577.851C1601.57 570.627 1606.4 556.94 1600.76 547.403C1595.11 537.866 1580.79 535.517 1568.58 542.741C1556.38 549.965 1551.54 563.652 1557.19 573.189C1562.83 582.726 1577.15 585.076 1589.36 577.851ZM1613.81 539.678C1623.22 555.573 1614.9 577.507 1595.84 588.79C1576.77 600.073 1553.54 596.809 1544.13 580.914C1534.73 565.019 1543.04 543.085 1562.11 531.802C1581.18 520.519 1604.41 523.783 1613.81 539.678Z" fill="#4D4F49" stroke="black" stroke-width="2.00895"/>
<path d="M1134.13 1288.75L1190.06 1265.31L1274.5 1118.99L1180.72 1130.2L735.794 1901.25L683.821 1917.83L414.564 2384.45L434.758 2489.23L392.282 2562.85L397.273 2565.72L1134.13 1288.75Z" fill="#4D4F49"/>
<path d="M1655.21 528.384L1610.7 468.61L1728.41 264.619L1722.18 261.019M1190.06 1265.31L1134.13 1288.75L397.273 2565.72L392.282 2562.85L434.758 2489.23L414.564 2384.45L683.821 1917.83L735.794 1901.25L1180.72 1130.2L1274.5 1118.99L1190.06 1265.31Z" stroke="white" stroke-width="0.571812"/>
<path d="M731.371 1845.48L1137.06 1142.43L1123.33 1134.51L717.647 1837.56L731.371 1845.48Z" fill="#4D4F49"/>
<g clip-path="url(#clip1_539_674)">
<path d="M1745.87 1407.74L1704.45 1479.53L1599.1 1352.49L1640.52 1280.7L1745.87 1407.74Z" fill="#4D4F49"/>
<path d="M1688.53 1507.08L1647.11 1578.86L1541.76 1451.83L1583.18 1380.04L1688.53 1507.08Z" fill="#4D4F49"/>
<path d="M1631.25 1606.42L1589.82 1678.21L1484.47 1551.17L1525.9 1479.38L1631.25 1606.42Z" fill="#4D4F49"/>
<path d="M1573.75 1706.07L1532.33 1777.86L1426.98 1650.82L1468.4 1579.03L1573.75 1706.07Z" fill="#4D4F49"/>
<path d="M1516.38 1805.41L1474.96 1877.2L1369.61 1750.16L1411.03 1678.37L1516.38 1805.41Z" fill="#4D4F49"/>
<path d="M1459.07 1904.75L1417.65 1976.54L1312.3 1849.5L1353.72 1777.71L1459.07 1904.75Z" fill="#4D4F49"/>
<path d="M1401.76 2004.08L1360.34 2075.87L1254.99 1948.83L1296.41 1877.05L1401.76 2004.08Z" fill="#4D4F49"/>
<path d="M1344.45 2103.44L1303.02 2175.22L1197.67 2048.19L1239.1 1976.4L1344.45 2103.44Z" fill="#4D4F49"/>
<path d="M1286.97 2203L1245.55 2274.79L1140.2 2147.75L1181.62 2075.96L1286.97 2203Z" fill="#4D4F49"/>
<path d="M1229.61 2302.42L1188.18 2374.21L1082.84 2247.17L1124.26 2175.38L1229.61 2302.42Z" fill="#4D4F49"/>
<path d="M1172.27 2401.76L1130.84 2473.55L1025.5 2346.51L1066.92 2274.72L1172.27 2401.76Z" fill="#4D4F49"/>
<path d="M1114.98 2501.09L1073.56 2572.88L968.21 2445.84L1009.63 2374.05L1114.98 2501.09Z" fill="#4D4F49"/>
<path d="M1057.65 2600.44L1016.22 2672.23L910.872 2545.19L952.296 2473.4L1057.65 2600.44Z" fill="#4D4F49"/>
</g>
<path d="M2033.37 2749.74L2033.3 2749.5L1914.12 2857.15L2065.81 2855.35L2065.92 2855.26L2293.19 2647.86H2145.01L2035.04 2748.21L2033.37 2749.74ZM1821.46 2749.74L1821.39 2749.5L1702.22 2857.15L1853.91 2855.35L1854.01 2855.26L2081.28 2647.86H1933.1L1823.13 2748.21L1821.46 2749.74ZM1639.83 2749.74L1639.76 2749.5L1520.58 2857.15L1672.27 2855.35L1672.38 2855.26L1899.65 2647.86H1751.47L1641.5 2748.21L1639.83 2749.74ZM1397.65 2749.74L1397.58 2749.5L1278.4 2857.15L1430.1 2855.35L1430.2 2855.26L1545.19 2750.32L1657.47 2647.86H1509.29L1399.32 2748.21L1397.65 2749.74Z" fill="#4D4F49" stroke="black" stroke-width="2.84138"/>
</g>
<path d="M344.729 3216.64V3175.27H228.884C152.155 3175.27 139.743 3192.19 134.478 3216.64H344.729ZM409.045 3113.21V3376.49H344.729V3274.56H130.34V3376.49H66.4V3244.47C66.4 3162.1 114.167 3113.21 197.666 3113.21H409.045ZM583.614 3113.21H796.498V3175.27H584.743C531.334 3175.27 515.913 3191.06 515.913 3246.73V3314.06H734.062V3274.56H686.295V3215.51H798.003V3376.49H452.349V3244.47C452.349 3162.1 499.74 3113.21 583.614 3113.21ZM933.473 3274.56V3215.51H1083.17C1109.12 3215.51 1123.79 3201.22 1127.55 3175.27H903.76V3376.49H839.819V3113.21H1189.61V3163.61C1189.61 3230.18 1157.26 3266.67 1092.57 3273.44L1192.62 3376.49H1115.14L1013.59 3274.56H933.473ZM1563.37 3113.21V3175.27H1293.32V3215.51H1556.6V3274.56H1296.7C1304.6 3300.14 1323.03 3314.06 1362.15 3314.06H1563.37V3376.49H1361.02C1279.4 3376.49 1229.38 3326.09 1229.38 3245.6V3113.21H1563.37ZM1880.22 3113.21H1944.16V3245.6C1944.16 3327.6 1896.77 3376.49 1812.89 3376.49H1598.13V3314.06H1811.39C1850.5 3314.06 1869.31 3300.52 1876.46 3274.94H1598.13V3113.21H1662.07V3217.39H1880.22V3113.21ZM2263.09 3216.64V3175.27H2147.24C2070.51 3175.27 2058.1 3192.19 2052.83 3216.64H2263.09ZM2327.4 3113.21V3376.49H2263.09V3274.56H2048.7V3376.49H1984.76V3244.47C1984.76 3162.1 2032.52 3113.21 2116.02 3113.21H2327.4ZM2521.2 3091.02V3030.09L2644.57 3075.22V3091.02H2521.2ZM3006.86 3314.06V3376.49H2681.52V3215.51H2946.69C2942.55 3188.43 2927.5 3175.27 2901.93 3175.27H2681.52V3113.21H2888.39C2968.5 3113.21 3008.37 3150.44 3008.37 3224.16V3274.56H2742.45V3314.06H3006.86ZM3042.19 3113.21H3106.5V3215.51H3304.72V3113.21H3365.27V3376.49H3304.72V3274.56H3042.19V3113.21Z" fill="white"/>
<defs>
<clipPath id="clip0_539_674">
<rect width="3264.54" height="3089.76" fill="white"/>
</clipPath>
<clipPath id="clip1_539_674">
<rect width="2317.32" height="1291.75" fill="white" transform="translate(193.855 1280.7)"/>
</clipPath>
</defs>
</svg>
